<svg width="38" height="31" viewBox="0 0 38 31" fill="none" xmlns="http://www.w3.org/2000/svg">
<path d="M8.007 16H1.326V4.661H2.737V14.742H8.007V16ZM16.1038 14.963C15.3671 15.7903 14.3868 16.204 13.1628 16.204C11.9388 16.204 10.9528 15.7903 10.2048 14.963C9.46811 14.1357 9.09978 13.11 9.09978 11.886C9.09978 10.662 9.46811 9.642 10.2048 8.826C10.9528 7.99867 11.9388 7.585 13.1628 7.585C14.3868 7.585 15.3671 7.99867 16.1038 8.826C16.8518 9.642 17.2258 10.662 17.2258 11.886C17.2258 13.11 16.8518 14.1357 16.1038 14.963ZM11.1568 14.147C11.6554 14.759 12.3241 15.065 13.1628 15.065C14.0014 15.065 14.6644 14.759 15.1518 14.147C15.6391 13.5237 15.8828 12.77 15.8828 11.886C15.8828 11.002 15.6391 10.254 15.1518 9.642C14.6644 9.03 14.0014 8.724 13.1628 8.724C12.3241 8.724 11.6554 9.03567 11.1568 9.659C10.6694 10.271 10.4258 11.0133 10.4258 11.886C10.4258 12.77 10.6694 13.5237 11.1568 14.147ZM22.6023 19.332C21.877 19.332 21.2593 19.2413 20.7493 19.06C20.2393 18.89 19.752 18.5727 19.2873 18.108L19.9333 17.156C20.5566 17.904 21.4463 18.278 22.6023 18.278C23.3616 18.278 23.9906 18.074 24.4893 17.666C24.988 17.2693 25.2373 16.6517 25.2373 15.813V14.64C24.9313 15.0707 24.5346 15.422 24.0473 15.694C23.56 15.966 23.0386 16.102 22.4833 16.102C21.3953 16.102 20.5113 15.7223 19.8313 14.963C19.1626 14.1923 18.8283 13.1553 18.8283 11.852C18.8283 10.5487 19.1626 9.51167 19.8313 8.741C20.5113 7.97033 21.3953 7.585 22.4833 7.585C23.6053 7.585 24.5233 8.06667 25.2373 9.03V7.789H26.5123V15.762C26.5123 17.02 26.144 17.9267 25.4073 18.482C24.6706 19.0487 23.7356 19.332 22.6023 19.332ZM22.7893 14.98C23.2766 14.98 23.747 14.8497 24.2003 14.589C24.665 14.3283 25.0106 14.011 25.2373 13.637V10.05C25.0106 9.676 24.6706 9.36433 24.2173 9.115C23.764 8.85433 23.288 8.724 22.7893 8.724C21.9733 8.724 21.3273 9.013 20.8513 9.591C20.3866 10.169 20.1543 10.9227 20.1543 11.852C20.1543 12.77 20.3923 13.5237 20.8683 14.113C21.3443 14.691 21.9846 14.98 22.7893 14.98ZM35.594 14.963C34.8573 15.7903 33.877 16.204 32.653 16.204C31.429 16.204 30.443 15.7903 29.695 14.963C28.9583 14.1357 28.59 13.11 28.59 11.886C28.59 10.662 28.9583 9.642 29.695 8.826C30.443 7.99867 31.429 7.585 32.653 7.585C33.877 7.585 34.8573 7.99867 35.594 8.826C36.342 9.642 36.716 10.662 36.716 11.886C36.716 13.11 36.342 14.1357 35.594 14.963ZM30.647 14.147C31.1457 14.759 31.8143 15.065 32.653 15.065C33.4917 15.065 34.1547 14.759 34.642 14.147C35.1293 13.5237 35.373 12.77 35.373 11.886C35.373 11.002 35.1293 10.254 34.642 9.642C34.1547 9.03 33.4917 8.724 32.653 8.724C31.8143 8.724 31.1457 9.03567 30.647 9.659C30.1597 10.271 29.916 11.0133 29.916 11.886C29.916 12.77 30.1597 13.5237 30.647 14.147Z" fill="white"/>
</svg>
