<svg width="79" height="40" viewBox="0 0 79 40" fill="none" xmlns="http://www.w3.org/2000/svg">
<path d="M47.296 20.316H50.104V30H47.296V20.316ZM48.7 18.966C48.184 18.966 47.764 18.816 47.44 18.516C47.116 18.216 46.954 17.844 46.954 17.4C46.954 16.956 47.116 16.584 47.44 16.284C47.764 15.984 48.184 15.834 48.7 15.834C49.216 15.834 49.636 15.978 49.96 16.266C50.284 16.554 50.446 16.914 50.446 17.346C50.446 17.814 50.284 18.204 49.96 18.516C49.636 18.816 49.216 18.966 48.7 18.966ZM59.0101 30.216C57.7021 30.216 56.5201 29.934 55.4641 29.37C54.4201 28.806 53.5981 28.032 52.9981 27.048C52.4101 26.052 52.1161 24.936 52.1161 23.7C52.1161 22.464 52.4101 21.354 52.9981 20.37C53.5981 19.374 54.4201 18.594 55.4641 18.03C56.5201 17.466 57.7021 17.184 59.0101 17.184C60.3181 17.184 61.4941 17.466 62.5381 18.03C63.5821 18.594 64.4041 19.374 65.0041 20.37C65.6041 21.354 65.9041 22.464 65.9041 23.7C65.9041 24.936 65.6041 26.052 65.0041 27.048C64.4041 28.032 63.5821 28.806 62.5381 29.37C61.4941 29.934 60.3181 30.216 59.0101 30.216ZM59.0101 27.732C59.7541 27.732 60.4261 27.564 61.0261 27.228C61.6261 26.88 62.0941 26.4 62.4301 25.788C62.7781 25.176 62.9521 24.48 62.9521 23.7C62.9521 22.92 62.7781 22.224 62.4301 21.612C62.0941 21 61.6261 20.526 61.0261 20.19C60.4261 19.842 59.7541 19.668 59.0101 19.668C58.2661 19.668 57.5941 19.842 56.9941 20.19C56.3941 20.526 55.9201 21 55.5721 21.612C55.2361 22.224 55.0681 22.92 55.0681 23.7C55.0681 24.48 55.2361 25.176 55.5721 25.788C55.9201 26.4 56.3941 26.88 56.9941 27.228C57.5941 27.564 58.2661 27.732 59.0101 27.732ZM72.2356 30.216C71.2396 30.216 70.2736 30.084 69.3376 29.82C68.4136 29.544 67.6696 29.19 67.1056 28.758L68.0956 26.562C68.6356 26.958 69.2776 27.276 70.0216 27.516C70.7656 27.756 71.5096 27.876 72.2536 27.876C73.0816 27.876 73.6936 27.756 74.0896 27.516C74.4856 27.264 74.6836 26.934 74.6836 26.526C74.6836 26.226 74.5636 25.98 74.3236 25.788C74.0956 25.584 73.7956 25.422 73.4236 25.302C73.0636 25.182 72.5716 25.05 71.9476 24.906C70.9876 24.678 70.2016 24.45 69.5896 24.222C68.9776 23.994 68.4496 23.628 68.0056 23.124C67.5736 22.62 67.3576 21.948 67.3576 21.108C67.3576 20.376 67.5556 19.716 67.9516 19.128C68.3476 18.528 68.9416 18.054 69.7336 17.706C70.5376 17.358 71.5156 17.184 72.6676 17.184C73.4716 17.184 74.2576 17.28 75.0256 17.472C75.7936 17.664 76.4656 17.94 77.0416 18.3L76.1416 20.514C74.9776 19.854 73.8136 19.524 72.6496 19.524C71.8336 19.524 71.2276 19.656 70.8316 19.92C70.4476 20.184 70.2556 20.532 70.2556 20.964C70.2556 21.396 70.4776 21.72 70.9216 21.936C71.3776 22.14 72.0676 22.344 72.9916 22.548C73.9516 22.776 74.7376 23.004 75.3496 23.232C75.9616 23.46 76.4836 23.82 76.9156 24.312C77.3596 24.804 77.5816 25.47 77.5816 26.31C77.5816 27.03 77.3776 27.69 76.9696 28.29C76.5736 28.878 75.9736 29.346 75.1696 29.694C74.3656 30.042 73.3876 30.216 72.2356 30.216Z" fill="#AAAAAA"/>
<path fill-rule="evenodd" clip-rule="evenodd" d="M23.5248 0.0610704C19.7652 0.622011 17.125 2.3566 15.8438 5.10754C15.3168 6.23901 15.0068 7.62395 15.0068 8.84708V9.193L15.3551 9.16578C16.5022 9.07609 17.7909 8.78592 18.7576 8.3997C21.9018 7.14347 23.7674 4.43438 24.0054 0.779627C24.0465 0.148185 24.0354 -0.00767459 23.9498 0.000285785C23.9239 0.00273513 23.7327 0.0300453 23.5248 0.0610704ZM21.7135 12.2702C20.5441 12.3456 20.067 12.4645 17.4949 13.3215L15.2266 14.0773L13.9923 13.6672C13.3134 13.4416 12.4336 13.1488 12.0373 13.0166C10.7943 12.602 9.87402 12.4588 8.71799 12.5002C5.88747 12.6018 3.68468 13.9679 1.89296 16.7331C-0.577826 20.5463 -0.629888 25.3794 1.7369 31.2142C3.24326 34.9278 5.1885 37.7645 7.15399 39.1138C8.27037 39.8801 9.31368 40.1308 10.5823 39.9377C11.0929 39.8599 11.5767 39.7049 12.3185 39.3816C13.7099 38.775 14.3296 38.6159 15.6329 38.5309C16.1753 38.4955 16.3382 38.499 16.6479 38.553C17.3252 38.6712 18.3211 38.9421 19.2657 39.2652C20.9405 39.8382 21.1999 39.8975 22.0121 39.8938C22.4978 39.8915 22.6491 39.8748 22.9673 39.7879C23.905 39.5319 24.749 38.9644 25.6899 37.9573C27.2509 36.2866 28.7433 33.7474 29.7452 31.0578C30.0178 30.3258 30.0295 30.2862 29.9723 30.2862C29.8985 30.2862 29.1661 29.8973 28.8098 29.669C26.9427 28.4722 25.7172 26.7334 25.2909 24.6759C25.207 24.2711 25.1851 24.0323 25.1677 23.3375C25.1442 22.3936 25.1854 21.846 25.3388 21.064C25.6666 19.3924 26.4505 17.9319 27.5446 16.9544C27.9115 16.6266 28.4632 16.2489 28.8015 16.094C28.9409 16.0301 29.0555 15.9687 29.0561 15.9575C29.0589 15.9036 28.4973 15.1821 28.2116 14.8726C26.5416 13.0632 24.1665 12.112 21.7135 12.2702Z" fill="#AAAAAA"/>
</svg>
