<svg width="140" height="29" viewBox="0 0 140 29" fill="none" xmlns="http://www.w3.org/2000/svg">
<path d="M70.538 8.4L66.416 21H63.284L60.512 12.468L57.65 21H54.536L50.396 8.4H53.42L56.264 17.256L59.234 8.4H61.934L64.814 17.328L67.748 8.4H70.538ZM72.1437 11.316H74.9517V21H72.1437V11.316ZM73.5477 9.966C73.0317 9.966 72.6117 9.816 72.2877 9.516C71.9637 9.216 71.8017 8.844 71.8017 8.4C71.8017 7.956 71.9637 7.584 72.2877 7.284C72.6117 6.984 73.0317 6.834 73.5477 6.834C74.0637 6.834 74.4837 6.978 74.8077 7.266C75.1317 7.554 75.2937 7.914 75.2937 8.346C75.2937 8.814 75.1317 9.204 74.8077 9.516C74.4837 9.816 74.0637 9.966 73.5477 9.966ZM83.4437 11.172C84.6437 11.172 85.6097 11.532 86.3417 12.252C87.0857 12.972 87.4577 14.04 87.4577 15.456V21H84.6497V15.888C84.6497 15.12 84.4817 14.55 84.1457 14.178C83.8097 13.794 83.3237 13.602 82.6877 13.602C81.9797 13.602 81.4157 13.824 80.9957 14.268C80.5757 14.7 80.3657 15.348 80.3657 16.212V21H77.5577V11.316H80.2397V12.45C80.6117 12.042 81.0737 11.73 81.6257 11.514C82.1777 11.286 82.7837 11.172 83.4437 11.172ZM99.9725 7.644V21H97.2905V19.884C96.5945 20.724 95.5865 21.144 94.2665 21.144C93.3545 21.144 92.5265 20.94 91.7825 20.532C91.0505 20.124 90.4745 19.542 90.0545 18.786C89.6345 18.03 89.4245 17.154 89.4245 16.158C89.4245 15.162 89.6345 14.286 90.0545 13.53C90.4745 12.774 91.0505 12.192 91.7825 11.784C92.5265 11.376 93.3545 11.172 94.2665 11.172C95.5025 11.172 96.4685 11.562 97.1645 12.342V7.644H99.9725ZM94.7525 18.84C95.4605 18.84 96.0485 18.6 96.5165 18.12C96.9845 17.628 97.2185 16.974 97.2185 16.158C97.2185 15.342 96.9845 14.694 96.5165 14.214C96.0485 13.722 95.4605 13.476 94.7525 13.476C94.0325 13.476 93.4385 13.722 92.9705 14.214C92.5025 14.694 92.2685 15.342 92.2685 16.158C92.2685 16.974 92.5025 17.628 92.9705 18.12C93.4385 18.6 94.0325 18.84 94.7525 18.84ZM107.179 21.144C106.159 21.144 105.241 20.934 104.425 20.514C103.621 20.082 102.991 19.488 102.535 18.732C102.079 17.976 101.851 17.118 101.851 16.158C101.851 15.198 102.079 14.34 102.535 13.584C102.991 12.828 103.621 12.24 104.425 11.82C105.241 11.388 106.159 11.172 107.179 11.172C108.199 11.172 109.111 11.388 109.915 11.82C110.719 12.24 111.349 12.828 111.805 13.584C112.261 14.34 112.489 15.198 112.489 16.158C112.489 17.118 112.261 17.976 111.805 18.732C111.349 19.488 110.719 20.082 109.915 20.514C109.111 20.934 108.199 21.144 107.179 21.144ZM107.179 18.84C107.899 18.84 108.487 18.6 108.943 18.12C109.411 17.628 109.645 16.974 109.645 16.158C109.645 15.342 109.411 14.694 108.943 14.214C108.487 13.722 107.899 13.476 107.179 13.476C106.459 13.476 105.865 13.722 105.397 14.214C104.929 14.694 104.695 15.342 104.695 16.158C104.695 16.974 104.929 17.628 105.397 18.12C105.865 18.6 106.459 18.84 107.179 18.84ZM129.655 11.316L126.145 21H123.445L121.267 14.988L119.017 21H116.317L112.825 11.316H115.471L117.757 17.868L120.133 11.316H122.509L124.813 17.868L127.171 11.316H129.655ZM134.077 21.144C133.273 21.144 132.487 21.048 131.719 20.856C130.951 20.652 130.339 20.4 129.883 20.1L130.819 18.084C131.251 18.36 131.773 18.588 132.385 18.768C132.997 18.936 133.597 19.02 134.185 19.02C135.373 19.02 135.967 18.726 135.967 18.138C135.967 17.862 135.805 17.664 135.481 17.544C135.157 17.424 134.659 17.322 133.987 17.238C133.195 17.118 132.541 16.98 132.025 16.824C131.509 16.668 131.059 16.392 130.675 15.996C130.303 15.6 130.117 15.036 130.117 14.304C130.117 13.692 130.291 13.152 130.639 12.684C130.999 12.204 131.515 11.832 132.187 11.568C132.871 11.304 133.675 11.172 134.599 11.172C135.283 11.172 135.961 11.25 136.633 11.406C137.317 11.55 137.881 11.754 138.325 12.018L137.389 14.016C136.537 13.536 135.607 13.296 134.599 13.296C133.999 13.296 133.549 13.38 133.249 13.548C132.949 13.716 132.799 13.932 132.799 14.196C132.799 14.496 132.961 14.706 133.285 14.826C133.609 14.946 134.125 15.06 134.833 15.168C135.625 15.3 136.273 15.444 136.777 15.6C137.281 15.744 137.719 16.014 138.091 16.41C138.463 16.806 138.649 17.358 138.649 18.066C138.649 18.666 138.469 19.2 138.109 19.668C137.749 20.136 137.221 20.502 136.525 20.766C135.841 21.018 135.025 21.144 134.077 21.144Z" fill="#ffffff"/>
<path fill-rule="evenodd" clip-rule="evenodd" d="M12.2646 0.013127C10.5922 0.145925 9.11759 0.518494 7.00865 1.34108C6.91009 1.37951 6.83397 1.42856 6.81895 1.46332C6.80517 1.49525 6.09702 3.92887 5.24531 6.87138C4.3936 9.8139 3.69043 12.2426 3.68272 12.2685C3.67201 12.3044 3.7733 12.2738 4.11301 12.1382C5.74724 11.486 7.31402 11.05 8.66412 10.8715C8.937 10.8354 9.2368 10.823 9.84553 10.8224C10.5587 10.8217 10.7161 10.8298 11.0973 10.8869C12.5902 11.1103 13.866 11.6404 15.578 12.7489C15.7604 12.8671 15.9187 12.9637 15.9296 12.9637C15.9467 12.9637 19.089 2.19795 19.0867 2.14742C19.0857 2.12613 18.3528 1.65424 17.9466 1.41338C17.5461 1.17585 16.7968 0.806751 16.3855 0.644346C15.5163 0.301132 14.6728 0.102229 13.7554 0.0241071C13.4482 -0.00205475 12.5401 -0.00874928 12.2646 0.013127ZM19.1999 8.68507C18.3422 11.6469 17.6359 14.1016 17.6303 14.1401C17.6213 14.2029 17.6618 14.2366 18.023 14.4659C19.3588 15.3142 20.3705 15.7736 21.5539 16.0693C23.4461 16.542 25.5156 16.4008 27.8462 15.6398C28.3515 15.4748 29.3357 15.0983 29.7008 14.9303L29.8658 14.8543L31.4372 9.43612C32.3015 6.4561 33.0047 4.01405 33 4.00932C32.9952 4.00461 32.8784 4.04632 32.7403 4.10203C32.6022 4.15774 32.2551 4.2885 31.9689 4.39258C29.2982 5.36377 27.0133 5.63808 25.0083 5.22825C23.7531 4.97168 22.5122 4.42454 21.0947 3.50277C20.9233 3.39126 20.7776 3.30003 20.7711 3.30003C20.7646 3.30003 20.0575 5.72328 19.1999 8.68507ZM8.71307 12.8269C7.13498 12.9079 5.31192 13.355 3.39322 14.1315L3.12929 14.2383L1.56206 19.6863C0.70008 22.6827 -0.00283243 25.1375 8.58186e-06 25.1414C0.00287773 25.1452 0.238316 25.0586 0.523205 24.9489C2.91883 24.0263 5.03645 23.6318 6.81313 23.7772C8.53808 23.9184 9.97276 24.4593 11.8391 25.6719C12.0382 25.8013 12.2043 25.9034 12.2082 25.8989C12.2121 25.8943 12.933 23.434 13.8102 20.4316C15.1231 15.9379 15.3986 14.9664 15.3679 14.9377C15.2997 14.8738 14.4569 14.3434 14.132 14.1599C12.6482 13.3221 11.2477 12.8897 9.84553 12.8363C9.64441 12.8287 9.39758 12.8188 9.29702 12.8143C9.19646 12.8099 8.93368 12.8155 8.71307 12.8269ZM15.5038 21.4177C14.6417 24.3862 13.9373 26.8275 13.9383 26.8429C13.9426 26.906 15.2678 27.7138 15.8197 27.9897C18.3907 29.2755 21.1028 29.3317 24.5991 28.1713C25.0177 28.0324 25.9442 27.687 26.1081 27.6088C26.1846 27.5723 26.2327 27.4138 27.7576 22.1693C28.6215 19.1982 29.3221 16.7611 29.3144 16.7535C29.3068 16.7459 29.1003 16.8179 28.8556 16.9135C27.2571 17.5379 25.6857 17.9434 24.2756 18.0952C23.8377 18.1424 22.5658 18.1425 22.18 18.0954C20.5337 17.8944 19.158 17.3654 17.5321 16.3082C17.335 16.1801 17.1507 16.0629 17.1225 16.0479C17.075 16.0226 16.9522 16.4303 15.5038 21.4177Z" fill="#ffffff"/>
</svg>
